<svg xmlns="http://www.w3.org/2000/svg" width="1152" height="1608" viewBox="0 0 1152 1608">
<title>Sky Bridge · bird's-eye level plan</title>
<desc>{&quot;level&quot;:&quot;sky&quot;,&quot;snapshot&quot;:&quot;43e8dc85e430&quot;,&quot;scale&quot;:8,&quot;origin&quot;:[96,228],&quot;worldOrigin&quot;:[-60,-140],&quot;axes&quot;:&quot;X right; -Z up; Y is elevation&quot;}</desc>
<rect id="Paper" width="1152" height="1608" fill="#f6f8f3"/>
<g id="00 Reference · keep with map">
<text x="96" y="40" font-family="Inter,Arial,sans-serif" font-size="13" fill="#54706c" letter-spacing="1.8">CODEX / SOL    •    CAMPAIGN ATLAS    /    07</text>
<text x="96" y="82" font-family="Inter,Arial,sans-serif" font-size="32" fill="#163f36" font-weight="700">Sky Bridge</text>
<text x="96" y="109" font-family="Inter,Arial,sans-serif" font-size="12" fill="#293e3f" >sky-bridge  /  level sky  /  snapshot 43e8dc85e430  /  10 October 2026</text>
<text x="96" y="131" font-family="Inter,Arial,sans-serif" font-size="12" fill="#293e3f" >1 m = 8 px  •  X →   −Z ↑  •  published geometry  •  Y = world height (metres)  •  killY -22 m</text>
<text x="96" y="154" font-family="Inter,Arial,sans-serif" font-size="12" fill="#293e3f" >Green → blue → violet = higher surfaces; labels show max Y. Dashed purple = motion. Camera line is not a walking route.</text>
<text x="96" y="177" font-family="Inter,Arial,sans-serif" font-size="12" fill="#293e3f" >CP checkpoint    ◆ crystal    ○ bonus entrance    ■ crates    × enemy    Blue = rails    Rust = blocking bounds</text>
<text x="96" y="199" font-family="Inter,Arial,sans-serif" font-size="12" fill="#56645e" >Draw above the map. Keep its title and A–D reference crosses for precise annotation return.</text>
</g>
<g id="01 Coordinate grid · 10 metres">
<path d="M96,228L96,1508" fill="none" stroke="#e2e8df" stroke-width="0.65"/>
<text x="99" y="216" font-family="Inter,Arial,sans-serif" font-size="10" fill="#667a6c" >-60</text>
<path d="M176,228L176,1508" fill="none" stroke="#ccd6cc" stroke-width="1.2"/>
<text x="179" y="216" font-family="Inter,Arial,sans-serif" font-size="10" fill="#667a6c" >-50</text>
<path d="M256,228L256,1508" fill="none" stroke="#e2e8df" stroke-width="0.65"/>
<text x="259" y="216" font-family="Inter,Arial,sans-serif" font-size="10" fill="#667a6c" >-40</text>
<path d="M336,228L336,1508" fill="none" stroke="#e2e8df" stroke-width="0.65"/>
<text x="339" y="216" font-family="Inter,Arial,sans-serif" font-size="10" fill="#667a6c" >-30</text>
<path d="M416,228L416,1508" fill="none" stroke="#e2e8df" stroke-width="0.65"/>
<text x="419" y="216" font-family="Inter,Arial,sans-serif" font-size="10" fill="#667a6c" >-20</text>
<path d="M496,228L496,1508" fill="none" stroke="#e2e8df" stroke-width="0.65"/>
<text x="499" y="216" font-family="Inter,Arial,sans-serif" font-size="10" fill="#667a6c" >-10</text>
<path d="M576,228L576,1508" fill="none" stroke="#ccd6cc" stroke-width="1.2"/>
<text x="579" y="216" font-family="Inter,Arial,sans-serif" font-size="10" fill="#667a6c" >0</text>
<path d="M656,228L656,1508" fill="none" stroke="#e2e8df" stroke-width="0.65"/>
<text x="659" y="216" font-family="Inter,Arial,sans-serif" font-size="10" fill="#667a6c" >10</text>
<path d="M736,228L736,1508" fill="none" stroke="#e2e8df" stroke-width="0.65"/>
<text x="739" y="216" font-family="Inter,Arial,sans-serif" font-size="10" fill="#667a6c" >20</text>
<path d="M816,228L816,1508" fill="none" stroke="#e2e8df" stroke-width="0.65"/>
<text x="819" y="216" font-family="Inter,Arial,sans-serif" font-size="10" fill="#667a6c" >30</text>
<path d="M896,228L896,1508" fill="none" stroke="#e2e8df" stroke-width="0.65"/>
<text x="899" y="216" font-family="Inter,Arial,sans-serif" font-size="10" fill="#667a6c" >40</text>
<path d="M976,228L976,1508" fill="none" stroke="#ccd6cc" stroke-width="1.2"/>
<text x="979" y="216" font-family="Inter,Arial,sans-serif" font-size="10" fill="#667a6c" >50</text>
<path d="M1056,228L1056,1508" fill="none" stroke="#e2e8df" stroke-width="0.65"/>
<text x="1059" y="216" font-family="Inter,Arial,sans-serif" font-size="10" fill="#667a6c" >60</text>
<path d="M96,228L1056,228" fill="none" stroke="#e2e8df" stroke-width="0.65"/>
<text x="16" y="232" font-family="Inter,Arial,sans-serif" font-size="10" fill="#667a6c" >-140</text>
<path d="M96,308L1056,308" fill="none" stroke="#e2e8df" stroke-width="0.65"/>
<text x="16" y="312" font-family="Inter,Arial,sans-serif" font-size="10" fill="#667a6c" >-130</text>
<path d="M96,388L1056,388" fill="none" stroke="#e2e8df" stroke-width="0.65"/>
<text x="16" y="392" font-family="Inter,Arial,sans-serif" font-size="10" fill="#667a6c" >-120</text>
<path d="M96,468L1056,468" fill="none" stroke="#e2e8df" stroke-width="0.65"/>
<text x="16" y="472" font-family="Inter,Arial,sans-serif" font-size="10" fill="#667a6c" >-110</text>
<path d="M96,548L1056,548" fill="none" stroke="#ccd6cc" stroke-width="1.2"/>
<text x="16" y="552" font-family="Inter,Arial,sans-serif" font-size="10" fill="#667a6c" >-100</text>
<path d="M96,628L1056,628" fill="none" stroke="#e2e8df" stroke-width="0.65"/>
<text x="16" y="632" font-family="Inter,Arial,sans-serif" font-size="10" fill="#667a6c" >-90</text>
<path d="M96,708L1056,708" fill="none" stroke="#e2e8df" stroke-width="0.65"/>
<text x="16" y="712" font-family="Inter,Arial,sans-serif" font-size="10" fill="#667a6c" >-80</text>
<path d="M96,788L1056,788" fill="none" stroke="#e2e8df" stroke-width="0.65"/>
<text x="16" y="792" font-family="Inter,Arial,sans-serif" font-size="10" fill="#667a6c" >-70</text>
<path d="M96,868L1056,868" fill="none" stroke="#e2e8df" stroke-width="0.65"/>
<text x="16" y="872" font-family="Inter,Arial,sans-serif" font-size="10" fill="#667a6c" >-60</text>
<path d="M96,948L1056,948" fill="none" stroke="#ccd6cc" stroke-width="1.2"/>
<text x="16" y="952" font-family="Inter,Arial,sans-serif" font-size="10" fill="#667a6c" >-50</text>
<path d="M96,1028L1056,1028" fill="none" stroke="#e2e8df" stroke-width="0.65"/>
<text x="16" y="1032" font-family="Inter,Arial,sans-serif" font-size="10" fill="#667a6c" >-40</text>
<path d="M96,1108L1056,1108" fill="none" stroke="#e2e8df" stroke-width="0.65"/>
<text x="16" y="1112" font-family="Inter,Arial,sans-serif" font-size="10" fill="#667a6c" >-30</text>
<path d="M96,1188L1056,1188" fill="none" stroke="#e2e8df" stroke-width="0.65"/>
<text x="16" y="1192" font-family="Inter,Arial,sans-serif" font-size="10" fill="#667a6c" >-20</text>
<path d="M96,1268L1056,1268" fill="none" stroke="#e2e8df" stroke-width="0.65"/>
<text x="16" y="1272" font-family="Inter,Arial,sans-serif" font-size="10" fill="#667a6c" >-10</text>
<path d="M96,1348L1056,1348" fill="none" stroke="#ccd6cc" stroke-width="1.2"/>
<text x="16" y="1352" font-family="Inter,Arial,sans-serif" font-size="10" fill="#667a6c" >0</text>
<path d="M96,1428L1056,1428" fill="none" stroke="#e2e8df" stroke-width="0.65"/>
<text x="16" y="1432" font-family="Inter,Arial,sans-serif" font-size="10" fill="#667a6c" >10</text>
<path d="M96,1508L1056,1508" fill="none" stroke="#e2e8df" stroke-width="0.65"/>
<text x="16" y="1512" font-family="Inter,Arial,sans-serif" font-size="10" fill="#667a6c" >20</text>
</g>
<defs><clipPath id="MapExtent"><rect x="96" y="228" width="960" height="1280"/></clipPath></defs><g id="Map geometry" clip-path="url(#MapExtent)">
<g id="02 Death volumes · below surfaces">
</g>
<g id="03 Surfaces · upper Y 0 to 5 m">
<g id="C0001 | platform | Y -0.5…0m | C0001"><title>C0001 | platform | Y -0.5…0m | C0001</title><path d="M604,1408L548,1408L548,1336L604,1336Z" fill-rule="nonzero" fill="#bfdbb5" fill-opacity=".89" stroke="#50776c" stroke-width="1.05" /></g>
<g id="C0002 | platform | Y -0.5…0m | C0002"><title>C0002 | platform | Y -0.5…0m | C0002</title><path d="M586.4,1324L565.6,1324L565.6,1308L586.4,1308Z" fill-rule="nonzero" fill="#bfdbb5" fill-opacity=".89" stroke="#50776c" stroke-width="1.05" /></g>
<g id="C0003 | platform | Y -0.5…0m | C0003"><title>C0003 | platform | Y -0.5…0m | C0003</title><path d="M586.4,1292L565.6,1292L565.6,1276L586.4,1276Z" fill-rule="nonzero" fill="#bfdbb5" fill-opacity=".89" stroke="#50776c" stroke-width="1.05" /></g>
<g id="C0004 | slippy plank | Y -0.5…0m | C0004"><title>C0004 | slippy plank | Y -0.5…0m | C0004</title><path d="M586.4,1244L565.6,1244L565.6,1228L586.4,1228Z" fill-rule="nonzero" fill="#a4d9ef" fill-opacity=".89" stroke="#50776c" stroke-width="1.05" /></g>
<g id="C0005 | slippy plank | Y -0.5…0m | C0005"><title>C0005 | slippy plank | Y -0.5…0m | C0005</title><path d="M586.4,1216L565.6,1216L565.6,1200L586.4,1200Z" fill-rule="nonzero" fill="#a4d9ef" fill-opacity=".89" stroke="#50776c" stroke-width="1.05" /></g>
<g id="C0006 | slippy plank | Y -0.5…0m | C0006"><title>C0006 | slippy plank | Y -0.5…0m | C0006</title><path d="M586.4,1188L565.6,1188L565.6,1172L586.4,1172Z" fill-rule="nonzero" fill="#a4d9ef" fill-opacity=".89" stroke="#50776c" stroke-width="1.05" /></g>
<g id="C0007 | platform | Y -0.5…0m | C0007"><title>C0007 | platform | Y -0.5…0m | C0007</title><path d="M586.4,1140L565.6,1140L565.6,1124L586.4,1124Z" fill-rule="nonzero" fill="#bfdbb5" fill-opacity=".89" stroke="#50776c" stroke-width="1.05" /></g>
<g id="C0008 | platform | Y -0.5…0m | C0008"><title>C0008 | platform | Y -0.5…0m | C0008</title><path d="M586.4,1044L565.6,1044L565.6,1028L586.4,1028Z" fill-rule="nonzero" fill="#bfdbb5" fill-opacity=".89" stroke="#50776c" stroke-width="1.05" /></g>
<g id="C0009 | platform | Y -0.5…0m | C0009"><title>C0009 | platform | Y -0.5…0m | C0009</title><path d="M596,1008L556,1008L556,968L596,968Z" fill-rule="nonzero" fill="#bfdbb5" fill-opacity=".89" stroke="#50776c" stroke-width="1.05" /></g>
<g id="C0010 | platform | Y -0.5…0m | C0010"><title>C0010 | platform | Y -0.5…0m | C0010</title><path d="M586.4,948L565.6,948L565.6,932L586.4,932Z" fill-rule="nonzero" fill="#bfdbb5" fill-opacity=".89" stroke="#50776c" stroke-width="1.05" /></g>
<g id="C0011 | platform | Y -0.5…0m | C0011"><title>C0011 | platform | Y -0.5…0m | C0011</title><path d="M586.4,852L565.6,852L565.6,836L586.4,836Z" fill-rule="nonzero" fill="#bfdbb5" fill-opacity=".89" stroke="#50776c" stroke-width="1.05" /></g>
<g id="C0012 | platform | Y -0.5…0m | C0012"><title>C0012 | platform | Y -0.5…0m | C0012</title><path d="M586.4,810.4L565.6,810.4L565.6,797.6L586.4,797.6Z" fill-rule="nonzero" fill="#bfdbb5" fill-opacity=".89" stroke="#50776c" stroke-width="1.05" /></g>
<g id="C0013 | platform | Y -0.5…0m | C0013"><title>C0013 | platform | Y -0.5…0m | C0013</title><path d="M586.4,770.4L565.6,770.4L565.6,757.6L586.4,757.6Z" fill-rule="nonzero" fill="#bfdbb5" fill-opacity=".89" stroke="#50776c" stroke-width="1.05" /></g>
<g id="C0014 | platform | Y -0.5…0m | C0014"><title>C0014 | platform | Y -0.5…0m | C0014</title><path d="M586.4,730.4L565.6,730.4L565.6,717.6L586.4,717.6Z" fill-rule="nonzero" fill="#bfdbb5" fill-opacity=".89" stroke="#50776c" stroke-width="1.05" /></g>
<g id="C0015 | platform | Y -0.5…0m | C0015"><title>C0015 | platform | Y -0.5…0m | C0015</title><path d="M592,704L560,704L560,680L592,680Z" fill-rule="nonzero" fill="#bfdbb5" fill-opacity=".89" stroke="#50776c" stroke-width="1.05" /></g>
<g id="C0016 | slippy plank | Y -0.5…0m | C0016"><title>C0016 | slippy plank | Y -0.5…0m | C0016</title><path d="M586.4,652L565.6,652L565.6,636L586.4,636Z" fill-rule="nonzero" fill="#a4d9ef" fill-opacity=".89" stroke="#50776c" stroke-width="1.05" /></g>
<g id="C0017 | platform | Y -0.5…0m | C0017"><title>C0017 | platform | Y -0.5…0m | C0017</title><path d="M596,600L556,600L556,560L596,560Z" fill-rule="nonzero" fill="#bfdbb5" fill-opacity=".89" stroke="#50776c" stroke-width="1.05" /></g>
<g id="C0018 | slippy plank | Y -0.5…0m | C0018"><title>C0018 | slippy plank | Y -0.5…0m | C0018</title><path d="M586.4,516L565.6,516L565.6,500L586.4,500Z" fill-rule="nonzero" fill="#a4d9ef" fill-opacity=".89" stroke="#50776c" stroke-width="1.05" /></g>
<g id="C0019 | platform | Y -0.5…0m | C0019"><title>C0019 | platform | Y -0.5…0m | C0019</title><path d="M586.4,474.4L565.6,474.4L565.6,461.6L586.4,461.6Z" fill-rule="nonzero" fill="#bfdbb5" fill-opacity=".89" stroke="#50776c" stroke-width="1.05" /></g>
<g id="C0020 | platform | Y -0.5…0m | C0020"><title>C0020 | platform | Y -0.5…0m | C0020</title><path d="M586.4,394.4L565.6,394.4L565.6,381.6L586.4,381.6Z" fill-rule="nonzero" fill="#bfdbb5" fill-opacity=".89" stroke="#50776c" stroke-width="1.05" /></g>
<g id="C0021 | platform | Y -0.5…0m | C0021"><title>C0021 | platform | Y -0.5…0m | C0021</title><path d="M604,380L548,380L548,316L604,316Z" fill-rule="nonzero" fill="#bfdbb5" fill-opacity=".89" stroke="#50776c" stroke-width="1.05" /></g>
<g id="C0024 | crumble pad | Y -0.5…0m | C0024"><title>C0024 | crumble pad | Y -0.5…0m | C0024</title><path d="M586.4,1108L565.6,1108L565.6,1092L586.4,1092Z" fill-rule="nonzero" fill="#bfdbb5" fill-opacity=".89" stroke="#8554a8" stroke-width="1.05" stroke-dasharray="4 3"/></g>
<g id="C0025 | crumble pad | Y -0.5…0m | C0025"><title>C0025 | crumble pad | Y -0.5…0m | C0025</title><path d="M586.4,1080L565.6,1080L565.6,1064L586.4,1064Z" fill-rule="nonzero" fill="#bfdbb5" fill-opacity=".89" stroke="#8554a8" stroke-width="1.05" stroke-dasharray="4 3"/></g>
<g id="C0026 | crumble pad | Y -0.5…0m | C0026"><title>C0026 | crumble pad | Y -0.5…0m | C0026</title><path d="M586.4,916L565.6,916L565.6,900L586.4,900Z" fill-rule="nonzero" fill="#bfdbb5" fill-opacity=".89" stroke="#8554a8" stroke-width="1.05" stroke-dasharray="4 3"/></g>
<g id="C0027 | crumble pad | Y -0.5…0m | C0027"><title>C0027 | crumble pad | Y -0.5…0m | C0027</title><path d="M586.4,888L565.6,888L565.6,872L586.4,872Z" fill-rule="nonzero" fill="#bfdbb5" fill-opacity=".89" stroke="#8554a8" stroke-width="1.05" stroke-dasharray="4 3"/></g>
<g id="C0028 | crumble pad | Y -0.5…0m | C0028"><title>C0028 | crumble pad | Y -0.5…0m | C0028</title><path d="M586.4,620L565.6,620L565.6,604L586.4,604Z" fill-rule="nonzero" fill="#bfdbb5" fill-opacity=".89" stroke="#8554a8" stroke-width="1.05" stroke-dasharray="4 3"/></g>
<g id="C0029 | crumble pad | Y -0.5…0m | C0029"><title>C0029 | crumble pad | Y -0.5…0m | C0029</title><path d="M586.4,548L565.6,548L565.6,532L586.4,532Z" fill-rule="nonzero" fill="#bfdbb5" fill-opacity=".89" stroke="#8554a8" stroke-width="1.05" stroke-dasharray="4 3"/></g>
<g id="C0030 | crumble pad | Y -0.5…0m | C0030"><title>C0030 | crumble pad | Y -0.5…0m | C0030</title><path d="M586.4,436L565.6,436L565.6,420L586.4,420Z" fill-rule="nonzero" fill="#bfdbb5" fill-opacity=".89" stroke="#8554a8" stroke-width="1.05" stroke-dasharray="4 3"/></g>
<g id="C0022 | warp plinth body | Y 0…0.737m | C0022"><title>C0022 | warp plinth body | Y 0…0.737m | C0022</title><path d="M581.608,320.344L586.112,323.936L588.608,329.12L588.608,334.88L586.112,340.064L581.608,343.656L576,344.936L570.392,343.656L565.888,340.064L563.392,334.88L563.392,329.12L565.888,323.936L570.392,320.344L576,319.064Z" fill-rule="nonzero" fill="#bfdbb5" fill-opacity=".89" stroke="#50776c" stroke-width="1.05" /></g>
<g id="G0032 | bonus platform deck | Y 0.93…1.05m"><title>G0032 | bonus platform deck | Y 0.93…1.05m</title><path d="M613.576,876.072L615.856,876.768L617.952,877.888L619.8,879.4L621.312,881.24L622.432,883.344L623.128,885.624L623.36,888L623.128,890.368L622.432,892.656L621.312,894.752L619.8,896.6L617.952,898.112L615.856,899.232L613.576,899.928L611.2,900.16L608.824,899.928L606.544,899.232L604.448,898.112L602.6,896.6L601.088,894.752L599.968,892.656L599.272,890.368L599.04,888L599.272,885.624L599.968,883.344L601.088,881.24L602.6,879.4L604.448,877.888L606.544,876.768L608.824,876.072L611.2,875.84Z" fill-rule="nonzero" fill="#bfdbb5" fill-opacity=".89" stroke="#50776c" stroke-width="1.05" /></g>
</g>
<g id="04 Blocking volumes · 21 runtime boxes"><path d="M604,1408L548,1408L548,1336L604,1336ZM586.4,1324L565.6,1324L565.6,1308L586.4,1308ZM586.4,1292L565.6,1292L565.6,1276L586.4,1276ZM586.4,1244L565.6,1244L565.6,1228L586.4,1228ZM586.4,1216L565.6,1216L565.6,1200L586.4,1200ZM586.4,1188L565.6,1188L565.6,1172L586.4,1172ZM586.4,1140L565.6,1140L565.6,1124L586.4,1124ZM586.4,1044L565.6,1044L565.6,1028L586.4,1028ZM596,1008L556,1008L556,968L596,968ZM586.4,948L565.6,948L565.6,932L586.4,932ZM586.4,852L565.6,852L565.6,836L586.4,836ZM586.4,810.4L565.6,810.4L565.6,797.6L586.4,797.6ZM586.4,770.4L565.6,770.4L565.6,757.6L586.4,757.6ZM586.4,730.4L565.6,730.4L565.6,717.6L586.4,717.6ZM592,704L560,704L560,680L592,680ZM586.4,652L565.6,652L565.6,636L586.4,636ZM596,600L556,600L556,560L596,560ZM586.4,516L565.6,516L565.6,500L586.4,500ZM586.4,474.4L565.6,474.4L565.6,461.6L586.4,461.6ZM586.4,394.4L565.6,394.4L565.6,381.6L586.4,381.6ZM604,380L548,380L548,316L604,316Z" fill="#ba7139" fill-opacity=".09" stroke="#ad7048" stroke-opacity=".65" stroke-width=".9"/></g>
<g id="05 Camera guide">
</g>
<g id="06 Grind rails">
<g id="R0001 | Grind rail | Y 1…1m"><title>R0001 | Grind rail | Y 1…1m</title><path d="M561.6,1332L561.6,1324L561.6,1316L561.6,1308L561.6,1300L561.6,1292L561.6,1284L561.6,1276L561.6,1268L561.6,1260L561.6,1252L561.6,1244L561.6,1236L561.6,1228L561.6,1220L561.6,1212L561.6,1204L561.6,1196L561.6,1188L561.6,1180L561.6,1172L561.6,1164L561.6,1156L561.6,1148L561.6,1140" fill="none" stroke="#397baf" stroke-width="2.3"  stroke-opacity="1"/></g>
<g id="R0002 | Grind rail | Y 1…1m"><title>R0002 | Grind rail | Y 1…1m</title><path d="M590.4,1332L590.4,1324L590.4,1316L590.4,1308L590.4,1300L590.4,1292L590.4,1284L590.4,1276L590.4,1268L590.4,1260L590.4,1252L590.4,1244L590.4,1236L590.4,1228L590.4,1220L590.4,1212L590.4,1204L590.4,1196L590.4,1188L590.4,1180L590.4,1172L590.4,1164L590.4,1156L590.4,1148L590.4,1140" fill="none" stroke="#397baf" stroke-width="2.3"  stroke-opacity="1"/></g>
<g id="R0003 | Grind rail | Y 1…1m"><title>R0003 | Grind rail | Y 1…1m</title><path d="M561.6,1140L561.6,1132L561.6,1124L561.6,1116L561.6,1108L561.6,1100L561.6,1092L561.6,1084L561.6,1076L561.6,1068L561.6,1060L561.6,1052L561.6,1044L561.6,1036L561.6,1028L561.6,1020L561.6,1012L561.6,1004L561.6,996L561.6,988L561.6,980L561.6,972L561.6,964L561.6,956L561.6,948" fill="none" stroke="#397baf" stroke-width="2.3"  stroke-opacity="1"/></g>
<g id="R0004 | Grind rail | Y 1…1m"><title>R0004 | Grind rail | Y 1…1m</title><path d="M590.4,1140L590.4,1132L590.4,1124L590.4,1116L590.4,1108L590.4,1100L590.4,1092L590.4,1084L590.4,1076L590.4,1068L590.4,1060L590.4,1052L590.4,1044L590.4,1036L590.4,1028L590.4,1020L590.4,1012L590.4,1004L590.4,996L590.4,988L590.4,980L590.4,972L590.4,964L590.4,956L590.4,948" fill="none" stroke="#397baf" stroke-width="2.3"  stroke-opacity="1"/></g>
<g id="R0005 | Grind rail | Y 1…1m"><title>R0005 | Grind rail | Y 1…1m</title><path d="M561.6,948L561.6,940L561.6,932L561.6,924L561.6,916L561.6,908L561.6,900L561.6,892L561.6,884L561.6,876L561.6,868L561.6,860L561.6,852L561.6,844L561.6,836L561.6,828L561.6,820L561.6,812L561.6,804L561.6,796L561.6,788L561.6,780L561.6,772L561.6,764L561.6,756" fill="none" stroke="#397baf" stroke-width="2.3"  stroke-opacity="1"/></g>
<g id="R0006 | Grind rail | Y 1…1m"><title>R0006 | Grind rail | Y 1…1m</title><path d="M590.4,948L590.4,940L590.4,932L590.4,924L590.4,916L590.4,908L590.4,900L590.4,892L590.4,884L590.4,876L590.4,868L590.4,860L590.4,852L590.4,844L590.4,836L590.4,828L590.4,820L590.4,812L590.4,804L590.4,796L590.4,788L590.4,780L590.4,772L590.4,764L590.4,756" fill="none" stroke="#397baf" stroke-width="2.3"  stroke-opacity="1"/></g>
<g id="R0007 | Grind rail | Y 1…1m"><title>R0007 | Grind rail | Y 1…1m</title><path d="M561.6,756L561.6,748L561.6,740L561.6,732L561.6,724L561.6,716L561.6,708L561.6,700L561.6,692L561.6,684L561.6,676L561.6,668L561.6,660L561.6,652L561.6,644L561.6,636L561.6,628L561.6,620L561.6,612L561.6,604L561.6,596L561.6,588L561.6,580L561.6,572L561.6,564" fill="none" stroke="#397baf" stroke-width="2.3"  stroke-opacity="1"/></g>
<g id="R0008 | Grind rail | Y 1…1m"><title>R0008 | Grind rail | Y 1…1m</title><path d="M590.4,756L590.4,748L590.4,740L590.4,732L590.4,724L590.4,716L590.4,708L590.4,700L590.4,692L590.4,684L590.4,676L590.4,668L590.4,660L590.4,652L590.4,644L590.4,636L590.4,628L590.4,620L590.4,612L590.4,604L590.4,596L590.4,588L590.4,580L590.4,572L590.4,564" fill="none" stroke="#397baf" stroke-width="2.3"  stroke-opacity="1"/></g>
<g id="R0009 | Grind rail | Y 1…1m"><title>R0009 | Grind rail | Y 1…1m</title><path d="M561.6,564L561.6,556L561.6,548L561.6,540L561.6,532L561.6,524L561.6,516L561.6,508L561.6,500L561.6,492L561.6,484L561.6,476L561.6,468L561.6,460L561.6,452L561.6,444L561.6,436L561.6,428L561.6,420L561.6,412L561.6,404L561.6,396L561.6,388L561.6,380L561.6,372" fill="none" stroke="#397baf" stroke-width="2.3"  stroke-opacity="1"/></g>
<g id="R0010 | Grind rail | Y 1…1m"><title>R0010 | Grind rail | Y 1…1m</title><path d="M590.4,564L590.4,556L590.4,548L590.4,540L590.4,532L590.4,524L590.4,516L590.4,508L590.4,500L590.4,492L590.4,484L590.4,476L590.4,468L590.4,460L590.4,452L590.4,444L590.4,436L590.4,428L590.4,420L590.4,412L590.4,404L590.4,396L590.4,388L590.4,380L590.4,372" fill="none" stroke="#397baf" stroke-width="2.3"  stroke-opacity="1"/></g>
</g>
<g id="07 Moving and conditional geometry">
</g>
<g id="08 Objects and collectibles">
<g id="E0001 | floater | Y 0…0m | C0031"><title>E0001 | floater | Y 0…0m | C0031</title><path d="M572,984L580,992" fill="none" stroke="#bc4649" stroke-width="2"/><path d="M572,992L580,984" fill="none" stroke="#bc4649" stroke-width="2"/></g>
<g id="E0002 | spiker | Y 0…0m | C0032"><title>E0002 | spiker | Y 0…0m | C0032</title><path d="M572,576L580,584" fill="none" stroke="#bc4649" stroke-width="2"/><path d="M572,584L580,576" fill="none" stroke="#bc4649" stroke-width="2"/></g>
<g id="F0001 | Fruit | Y 1.2…1.2m | C0035"><title>F0001 | Fruit | Y 1.2…1.2m | C0035</title><circle cx="576" cy="1208" r="1.8" fill="#d2a324"/></g>
<g id="F0002 | Fruit | Y 1.2…1.2m | C0036"><title>F0002 | Fruit | Y 1.2…1.2m | C0036</title><circle cx="576" cy="764" r="1.8" fill="#d2a324"/></g>
<g id="F0003 | Fruit | Y 1.2…1.2m | C0037"><title>F0003 | Fruit | Y 1.2…1.2m | C0037</title><circle cx="576" cy="348" r="1.8" fill="#d2a324"/></g>
<g id="CLOCK | Time trial clock | Y 1.35…1.35m"><title>CLOCK | Time trial clock | Y 1.35…1.35m</title><circle cx="592" cy="1340" r="4.5" fill="#d2a324"/></g>
</g>
<g id="09 Surface labels · hide to declutter">
<text x="576" y="1372" font-family="Inter,Arial,sans-serif" font-size="9" fill="#263e3a" text-anchor="middle" paint-order="stroke" stroke="#f6f8f3" stroke-width="2.5" stroke-linejoin="round">C0001 · maxY 0</text>
<text x="576" y="988" font-family="Inter,Arial,sans-serif" font-size="9" fill="#263e3a" text-anchor="middle" paint-order="stroke" stroke="#f6f8f3" stroke-width="2.5" stroke-linejoin="round">C0009 · maxY 0</text>
<text x="576" y="580" font-family="Inter,Arial,sans-serif" font-size="9" fill="#263e3a" text-anchor="middle" paint-order="stroke" stroke="#f6f8f3" stroke-width="2.5" stroke-linejoin="round">C0017 · maxY 0</text>
<text x="576" y="348" font-family="Inter,Arial,sans-serif" font-size="9" fill="#263e3a" text-anchor="middle" paint-order="stroke" stroke="#f6f8f3" stroke-width="2.5" stroke-linejoin="round">C0021 · maxY 0</text>
</g>
<g id="10 Start checkpoints finish and crystal">
<g id="CP0001 | Checkpoint 1 | Y 0.1…0.1m | C0033"><title>CP0001 | Checkpoint 1 | Y 0.1…0.1m | C0033</title><circle cx="576" cy="1036" r="7" fill="#116f53" stroke="#fffdf5" stroke-width="2"/>

<text x="588" y="1027" font-family="Inter,Arial,sans-serif" font-size="12" fill="#116f53" text-anchor="start" font-weight="700" paint-order="stroke" stroke="#f6f8f3" stroke-width="4" stroke-linejoin="round">CP0001 · Y 0.1</text>
</g>
<g id="CP0002 | Checkpoint 2 | Y 0.1…0.1m | C0034"><title>CP0002 | Checkpoint 2 | Y 0.1…0.1m | C0034</title><circle cx="576" cy="692" r="7" fill="#116f53" stroke="#fffdf5" stroke-width="2"/>

<text x="588" y="683" font-family="Inter,Arial,sans-serif" font-size="12" fill="#116f53" text-anchor="start" font-weight="700" paint-order="stroke" stroke="#f6f8f3" stroke-width="4" stroke-linejoin="round">CP0002 · Y 0.1</text>
</g>
<g id="START | Spawn | Y 0.1…0.1m"><title>START | Spawn | Y 0.1…0.1m</title><circle cx="576" cy="1380" r="7" fill="#124d3d" stroke="#fffdf5" stroke-width="2"/>

<text x="588" y="1371" font-family="Inter,Arial,sans-serif" font-size="12" fill="#124d3d" text-anchor="start" font-weight="700" paint-order="stroke" stroke="#f6f8f3" stroke-width="4" stroke-linejoin="round">START · Y 0.1</text>
</g>
<g id="FINISH | Finish gate | Y 0…0m"><title>FINISH | Finish gate | Y 0…0m</title><circle cx="576" cy="332" r="7" fill="#2047a0" stroke="#fffdf5" stroke-width="2"/>

<text x="588" y="323" font-family="Inter,Arial,sans-serif" font-size="12" fill="#2047a0" text-anchor="start" font-weight="700" paint-order="stroke" stroke="#f6f8f3" stroke-width="4" stroke-linejoin="round">FINISH · Y 0</text>
</g>
<g id="CRYSTAL | Crystal | Y 4.3…4.3m"><title>CRYSTAL | Crystal | Y 4.3…4.3m</title><path d="M576,339l7,9 -7,9 -7,-9Z" fill="#7545af" stroke="#fffdf5" stroke-width="2"/>

<text x="588" y="339" font-family="Inter,Arial,sans-serif" font-size="12" fill="#7545af" text-anchor="start" font-weight="700" paint-order="stroke" stroke="#f6f8f3" stroke-width="4" stroke-linejoin="round">CRYSTAL · Y 4.3</text>
</g>
<g id="BONUS | Bonus entrance · separate stage omitted | Y 0…0m"><title>BONUS | Bonus entrance · separate stage omitted | Y 0…0m</title><circle cx="611.2" cy="888" r="7" fill="#fffdf5" stroke="#986820" stroke-width="2"/>

<text x="623.2" y="879" font-family="Inter,Arial,sans-serif" font-size="12" fill="#986820" text-anchor="start" font-weight="700" paint-order="stroke" stroke="#f6f8f3" stroke-width="4" stroke-linejoin="round">BONUS · Y 0</text>
</g>
</g></g>
<g id="11 Registration anchors · do not detach">
<g id="REF-A | X -60 Z -140">
<path d="M88,228L104,228" fill="none" stroke="#163f36" stroke-width="2"/>
<path d="M96,220L96,236" fill="none" stroke="#163f36" stroke-width="2"/>
<text x="100" y="246" font-family="Inter,Arial,sans-serif" font-size="11" fill="#163f36" text-anchor="start" font-weight="700">A (-60, -140)</text>
</g>
<g id="REF-B | X 60 Z -140">
<path d="M1048,228L1064,228" fill="none" stroke="#163f36" stroke-width="2"/>
<path d="M1056,220L1056,236" fill="none" stroke="#163f36" stroke-width="2"/>
<text x="1052" y="246" font-family="Inter,Arial,sans-serif" font-size="11" fill="#163f36" text-anchor="end" font-weight="700">B (60, -140)</text>
</g>
<g id="REF-C | X -60 Z 20">
<path d="M88,1508L104,1508" fill="none" stroke="#163f36" stroke-width="2"/>
<path d="M96,1500L96,1516" fill="none" stroke="#163f36" stroke-width="2"/>
<text x="100" y="1496" font-family="Inter,Arial,sans-serif" font-size="11" fill="#163f36" text-anchor="start" font-weight="700">C (-60, 20)</text>
</g>
<g id="REF-D | X 60 Z 20">
<path d="M1048,1508L1064,1508" fill="none" stroke="#163f36" stroke-width="2"/>
<path d="M1056,1500L1056,1516" fill="none" stroke="#163f36" stroke-width="2"/>
<text x="1052" y="1496" font-family="Inter,Arial,sans-serif" font-size="11" fill="#163f36" text-anchor="end" font-weight="700">D (60, 20)</text>
</g>
</g>
<path d="M96,1562L176,1562" fill="none" stroke="#193d36" stroke-width="3"/>
<text x="96" y="1551" font-family="Inter,Arial,sans-serif" font-size="11" fill="#293e3f" >10 m</text>
<text x="211" y="1568" font-family="Inter,Arial,sans-serif" font-size="12" fill="#293e3f" >Codex/sol fork · full object IDs, heights and source references in the companion manifest</text>
</svg>